# xmcd CD database file
#
# Track frame offsets:
#	150
#	50265
#	105755
#	137787
#
# Disc length: 2303 seconds
#
# Revision: 0
# Processed by: cddbd v1.5.2PL0 Copyright (c) Steve Scherf et al.
# Submitted via: CDex 1.70beta3
#
DISCID=2808fd04
DTITLE=Trio (Mit) Marlene - The Surface of an Object
DYEAR=2014
DGENRE=Jazz
TTITLE0=The Physical Margins of the Novel
TTITLE1=How to Build a Wall with Your Head
TTITLE2=Life's a Photograph
TTITLE3=How It Always Vanishes (Kokoschka)
EXTD=YEAR: 2014
EXTT0=
EXTT1=
EXTT2=
EXTT3=
PLAYORDER=
